<?xml version="1.0" encoding="utf-8"?>
<!-- Generator: Adobe Illustrator 22.1.0, SVG Export Plug-In . SVG Version: 6.00 Build 0)  -->
<svg version="1.1" id="Layer_1" xmlns="http://www.w3.org/2000/svg" xmlns:xlink="http://www.w3.org/1999/xlink" x="0px" y="0px"
	 viewBox="0 0 40 40" style="enable-background:new 0 0 40 40;" xml:space="preserve">
<style type="text/css">
	.st0{fill:url(#SVGID_1_);}
	.st1{display:none;}
	.st2{display:inline;fill:none;stroke:#FFFFFF;stroke-width:2;stroke-linecap:round;stroke-linejoin:round;stroke-miterlimit:10;}
	.st3{opacity:0.4;fill:#FFFFFF;}
	.st4{fill:#FFFFFF;}
</style>
<radialGradient id="SVGID_1_" cx="9.8999" cy="32.4157" r="31.1508" gradientTransform="matrix(1 0 0 -1 0 42)" gradientUnits="userSpaceOnUse">
	<stop  offset="0" style="stop-color:#4CB8C4"/>
	<stop  offset="0.4044" style="stop-color:#4ABBC1"/>
	<stop  offset="0.746" style="stop-color:#44C6B8"/>
	<stop  offset="1" style="stop-color:#3CD3AD"/>
</radialGradient>
<circle class="st0" cx="20" cy="20" r="20"/>
<g class="st1">
	<ellipse class="st2" cx="20" cy="15.8" rx="5.9" ry="5.6"/>
	<path class="st2" d="M12,29.8c0-4.2,3.6-7.7,8-7.7s8,3.4,8,7.7"/>
</g>
<g>
	<path class="st3" d="M24.1,30c-1.4-0.1-2.7-0.6-3.7-1.1c-2.5-1.2-4.7-3-6.5-5.2c-1.5-1.8-2.5-3.5-3.2-5.4c-0.3-0.8-0.6-1.9-0.5-3.2
		c0.1-0.8,0.4-1.5,0.9-2.1l2.4-2.4c0.5-0.4,1-0.7,1.5-0.7c0.6,0,1.1,0.2,1.5,0.7c0.3,0.2,0.5,0.5,0.8,0.8c0.1,0.1,0.3,0.3,0.4,0.4
		l1.1,1.1c0.9,0.9,0.9,2.2,0,3.2l-0.4,0.4c-0.2,0.3-0.5,0.5-0.8,0.8c0.2,0.5,0.6,1,1,1.6c1,1.3,2.1,2.3,3.3,3.1
		c0.1,0.1,0.2,0.1,0.4,0.2l0.2,0.1l1.2-1.2c0.5-0.5,1-0.7,1.5-0.7c0.6,0,1.1,0.2,1.5,0.7l2.3,2.3c0.5,0.5,0.7,1,0.7,1.6
		s-0.2,1.1-0.7,1.6c-0.2,0.2-0.4,0.4-0.5,0.5c-0.3,0.3-0.5,0.5-0.7,0.7l-1,1c-0.7,0.7-1.5,1.1-2.5,1.1C24.3,30,24.2,30,24.1,30z"/>
	<path class="st4" d="M24.1,30c-1.4-0.1-2.7-0.6-3.7-1.1c-2.5-1.2-4.7-3-6.5-5.2c-1.5-1.8-2.5-3.5-3.2-5.4c-0.3-0.8-0.6-1.9-0.5-3.2
		c0.1-0.8,0.4-1.5,0.9-2.1l2.4-2.4c0.5-0.4,1-0.7,1.5-0.7c0.6,0,1.1,0.2,1.5,0.7c0.3,0.2,0.5,0.5,0.8,0.8c0.1,0.1,0.3,0.3,0.4,0.4
		l1.1,1.1c0.9,0.9,0.9,2.2,0,3.2l-0.4,0.4c-0.2,0.3-0.5,0.5-0.8,0.8c0.2,0.5,0.6,1,1,1.6c1,1.3,2.1,2.3,3.3,3.1
		c0.1,0.1,0.2,0.1,0.4,0.2l0.2,0.1l1.2-1.2c0.5-0.5,1-0.7,1.5-0.7c0.6,0,1.1,0.2,1.5,0.7l2.3,2.3c0.5,0.5,0.7,1,0.7,1.6
		s-0.2,1.1-0.7,1.6c-0.2,0.2-0.4,0.4-0.5,0.5c-0.3,0.3-0.5,0.5-0.7,0.7l-1,1c-0.7,0.7-1.5,1.1-2.5,1.1C24.3,30,24.2,30,24.1,30z
		 M15.1,11.5c-0.2,0-0.3,0.1-0.5,0.2l-2.4,2.4c-0.3,0.3-0.5,0.7-0.5,1.1c-0.1,0.7,0.1,1.5,0.4,2.5c0.6,1.7,1.5,3.2,2.9,4.9
		c1.7,2,3.7,3.6,6,4.8c0.8,0.4,1.9,0.9,3.1,1c0.1,0,0.2,0,0.2,0c0.6,0,1-0.2,1.4-0.6c0.3-0.3,1.6-1.6,1.8-1.8l0.1-0.1
		c0.1-0.1,0.2-0.2,0.3-0.3v-0.1H28c0.3-0.3,0.3-0.6-0.1-1l-2.3-2.3c-0.1-0.1-0.3-0.3-0.5-0.3s-0.4,0.1-0.5,0.3l-1.4,1.4
		c0,0.3-0.2,0.4-0.5,0.4c-0.2,0-0.3,0-0.5-0.1s-0.3-0.2-0.4-0.2c-0.2-0.1-0.4-0.2-0.5-0.3c-1.3-0.9-2.5-2-3.7-3.4
		c-0.6-0.8-1.1-1.5-1.4-2.2c-0.1-0.3-0.2-0.8,0.2-1.2c0.4-0.3,0.7-0.7,1-1l0.4-0.4c0.4-0.4,0.4-0.6,0-1l-1.5-1.5
		c-0.2-0.3-0.5-0.5-0.7-0.7C15.4,11.7,15.3,11.5,15.1,11.5z"/>
</g>
</svg>
