<?xml version="1.0" encoding="utf-8"?>
<!-- Generator: Adobe Illustrator 22.1.0, SVG Export Plug-In . SVG Version: 6.00 Build 0)  -->
<svg version="1.1" id="Layer_1" xmlns="http://www.w3.org/2000/svg" xmlns:xlink="http://www.w3.org/1999/xlink" x="0px" y="0px"
	 viewBox="0 0 40 40" style="enable-background:new 0 0 40 40;" xml:space="preserve">
<linearGradient id="SVGID_1_" gradientUnits="userSpaceOnUse" x1="5.8579" y1="34.1421" x2="34.1421" y2="5.8579">
	<stop  offset="0" style="stop-color:#565EAA"/>
	<stop  offset="1" style="stop-color:#9191C7"/>
</linearGradient>
<circle style="fill:url(#SVGID_1_);" cx="20" cy="20" r="20"/>
<path style="fill:#FFFFFF;" d="M30.7,20.8c0.4-0.4,0.6-0.9,0.6-1.5c0-1.2-1-2.2-2.2-2.2h-4.4c0.4-1.3,0.6-3.1,0.6-3.8v-0.7
	c0-1.7-1.3-3-3-3h-0.7c-0.3,0-0.6,0.2-0.7,0.6l-0.4,1.6C19.8,14,18,16.5,16.1,17c-0.3-0.8-1.1-1.4-2.1-1.4H9.5
	c-0.4,0-0.7,0.3-0.7,0.7v13.5c0,0.4,0.3,0.7,0.7,0.7H14c0.9,0,1.7-0.5,2-1.3l2.6,0.9c0.8,0.3,1.7,0.4,2.6,0.4h6.3
	c1.2,0,2.2-1,2.2-2.2c0-0.3-0.1-0.6-0.2-0.8c1-0.3,1.7-1.1,1.7-2.2c0-0.6-0.2-1.1-0.6-1.5c0.4-0.4,0.6-0.9,0.6-1.5
	C31.2,21.7,31,21.2,30.7,20.8z M14.8,28.3c0,0.4-0.3,0.7-0.7,0.7h-3.7V17H14c0.4,0,0.7,0.3,0.7,0.7V28.3z M27.5,21.5H29
	c0.4,0,0.7,0.3,0.7,0.7c0,0.4-0.3,0.7-0.7,0.7h-1.5c-0.4,0-0.7,0.3-0.7,0.7s0.3,0.7,0.7,0.7H29c0.4,0,0.7,0.3,0.7,0.7S29.4,26,29,26
	h-1.5c-0.4,0-0.7,0.3-0.7,0.7c0,0.4,0.3,0.7,0.7,0.7c0.4,0,0.7,0.3,0.7,0.7S27.9,29,27.5,29h-6.3c-0.7,0-1.4-0.1-2.1-0.3l-2.8-0.9
	v-9.3c1.2-0.2,2.3-1,3.4-2.2c1-1.2,1.8-2.8,2.2-4.2l0.3-1.1h0.2c0.8,0,1.5,0.7,1.5,1.5v0.7c0,1-0.3,2.9-0.7,3.8h-1.5
	c-0.4,0-0.7,0.3-0.7,0.7c0,0.4,0.3,0.7,0.7,0.7H29c0.4,0,0.7,0.3,0.7,0.7S29.4,20,29,20h-1.5c-0.4,0-0.7,0.3-0.7,0.7
	S27.1,21.5,27.5,21.5z"/>
</svg>
