<?xml version="1.0" encoding="utf-8"?>
<!-- Generator: Adobe Illustrator 22.1.0, SVG Export Plug-In . SVG Version: 6.00 Build 0)  -->
<svg version="1.1" id="Layer_1" xmlns="http://www.w3.org/2000/svg" xmlns:xlink="http://www.w3.org/1999/xlink" x="0px" y="0px"
	 viewBox="0 0 40 40" style="enable-background:new 0 0 40 40;" xml:space="preserve">
<style type="text/css">
	.st0{fill:url(#SVGID_1_);}
	.st1{fill:#FFFFFF;}
	.st2{opacity:0.56;fill:#FFFFFF;}
</style>
<linearGradient id="SVGID_1_" gradientUnits="userSpaceOnUse" x1="5.8579" y1="7.8579" x2="34.1421" y2="36.1421" gradientTransform="matrix(1 0 0 -1 0 42)">
	<stop  offset="0" style="stop-color:#F09819"/>
	<stop  offset="1" style="stop-color:#EDDE5D"/>
</linearGradient>
<circle class="st0" cx="20" cy="20" r="20"/>
<g>
	<path id="XMLID_5_" class="st1" d="M10.5,19.4c0,0,5.4-14.8,16.4-6.3h-7.6c0,0-2.5-0.1-3.3,3l-1.3,6.6c0,0-0.5,1.7,0.3,2.3
		s2.4,1.7,2.8-0.3l1.4-7.5c0,0,0.2-0.7,0.8-0.7c0.6,0,1.4,0,1.4,0s0.6,0.2,0.5,0.9l-1.2,5.9c0,0-0.6,2.1,0.7,2.5
		c1.2,0.4,2.1,1,2.6-1.3l1.2-6.8c0,0,0.3-1.6,1-1.3c0.7,0.3,1.5,0,1.4,1.4c-0.1,1.4-0.7,5.1-0.7,5.1s-0.2,1.9,1.2,2.4
		c1.4,0.4,1.5-0.3,1.7-1l0.6-4.2c0,0,0.2-1.2,0.6-0.6c0,0,0.4,0.8,0.3,1.4c0,0,2.1-8.2-5.3-11.7C26,9.4,13.6,3.4,10.5,19.4z"/>
	<path id="XMLID_6_" class="st2" d="M12.6,12.8c0,0-5.9,8.5,1.3,14.8c0,0,4.5,4.2,12.2,0.6c0,0-3.6,4-8.3,3.4
		C13,30.9,7.3,27,8.6,17.7C8.6,17.7,9.2,14.4,12.6,12.8z"/>
</g>
</svg>
