<?xml version="1.0" encoding="utf-8"?>
<!-- Generator: Adobe Illustrator 22.1.0, SVG Export Plug-In . SVG Version: 6.00 Build 0)  -->
<svg version="1.1" id="Layer_1" xmlns="http://www.w3.org/2000/svg" xmlns:xlink="http://www.w3.org/1999/xlink" x="0px" y="0px"
	 viewBox="0 0 40 40" style="enable-background:new 0 0 40 40;" xml:space="preserve">
<linearGradient id="SVGID_1_" gradientUnits="userSpaceOnUse" x1="5.8579" y1="34.1421" x2="34.1421" y2="5.8579">
	<stop  offset="0" style="stop-color:#6967AF"/>
	<stop  offset="1" style="stop-color:#BEA0CC"/>
</linearGradient>
<circle style="fill:url(#SVGID_1_);" cx="20" cy="20" r="20"/>
<g style="display:none;">
	
		<ellipse style="display:inline;fill:none;stroke:#FFFFFF;stroke-width:2;stroke-linecap:round;stroke-linejoin:round;stroke-miterlimit:10;" cx="20" cy="15.8" rx="5.9" ry="5.6"/>
	
		<path style="display:inline;fill:none;stroke:#FFFFFF;stroke-width:2;stroke-linecap:round;stroke-linejoin:round;stroke-miterlimit:10;" d="
		M12,29.8c0-4.2,3.6-7.7,8-7.7s8,3.4,8,7.7"/>
</g>
<path style="display:none;fill:none;stroke:#FFFFFF;stroke-width:2;stroke-miterlimit:10;" d="M26.8,31.4H11.3
	c-1.1,0-1.9-0.9-1.9-1.9V14.3c0-1.1,0.9-1.9,1.9-1.9h15.6c1.1,0,1.9,0.9,1.9,1.9v15.1C28.8,30.5,27.9,31.4,26.8,31.4z"/>
<g>
	<path style="fill:none;stroke:#FFFFFF;stroke-width:1.5;stroke-linecap:round;stroke-miterlimit:10;" d="M28.8,15.3v11.4
		c0,1-0.8,1.7-1.7,1.7H13c-1,0-1.7-0.8-1.7-1.7V13.3c0-1,0.8-1.7,1.7-1.7h11.3c1,0,1.7,0.8,1.7,1.7v11"/>
	
		<line style="fill:none;stroke:#FFFFFF;stroke-width:1.5;stroke-linecap:round;stroke-miterlimit:10;" x1="15.2" y1="16.1" x2="21.6" y2="16.1"/>
	
		<line style="fill:none;stroke:#FFFFFF;stroke-width:1.5;stroke-linecap:round;stroke-miterlimit:10;" x1="15.2" y1="23.2" x2="21.6" y2="23.2"/>
	
		<line style="fill:none;stroke:#FFFFFF;stroke-width:1.5;stroke-linecap:round;stroke-miterlimit:10;" x1="15.2" y1="19.6" x2="21.6" y2="19.6"/>
</g>
</svg>
