<?xml version="1.0" encoding="utf-8"?>
<!-- Generator: Adobe Illustrator 22.1.0, SVG Export Plug-In . SVG Version: 6.00 Build 0)  -->
<svg version="1.1" id="Layer_1" xmlns="http://www.w3.org/2000/svg" xmlns:xlink="http://www.w3.org/1999/xlink" x="0px" y="0px"
	 viewBox="0 0 40 40" style="enable-background:new 0 0 40 40;" xml:space="preserve">
<linearGradient id="SVGID_1_" gradientUnits="userSpaceOnUse" x1="32.8561" y1="37.3212" x2="7.1439" y2="6.6788" gradientTransform="matrix(1 0 0 -1 0 42)">
	<stop  offset="0" style="stop-color:#FFE985"/>
	<stop  offset="9.261978e-02" style="stop-color:#FED979"/>
	<stop  offset="0.3783" style="stop-color:#FCAE57"/>
	<stop  offset="0.6349" style="stop-color:#FB8E3F"/>
	<stop  offset="0.8509" style="stop-color:#FA7B30"/>
	<stop  offset="1" style="stop-color:#FA742B"/>
</linearGradient>
<circle style="fill:url(#SVGID_1_);" cx="20" cy="20" r="20"/>
<g style="display:none;">
	
		<ellipse style="display:inline;fill:none;stroke:#FFFFFF;stroke-width:2;stroke-linecap:round;stroke-linejoin:round;stroke-miterlimit:10;" cx="20" cy="15.8" rx="5.9" ry="5.6"/>
	
		<path style="display:inline;fill:none;stroke:#FFFFFF;stroke-width:2;stroke-linecap:round;stroke-linejoin:round;stroke-miterlimit:10;" d="
		M12,29.8c0-4.2,3.6-7.7,8-7.7s8,3.4,8,7.7"/>
</g>
<g>
	<path style="fill:#FFFFFF;" d="M28.2,11.8c-1.8-1.8-4.6-1.8-6.4,0L18.7,15c-0.3,0.3-0.3,0.7,0,1c0.3,0.3,0.7,0.3,1,0l3.2-3.2
		c0.6-0.6,1.4-0.9,2.2-0.9c0.8,0,1.6,0.3,2.2,0.9c0.6,0.6,0.9,1.4,0.9,2.2c0,0.8-0.3,1.6-0.9,2.2l-4.2,4.2c-1.2,1.2-3.2,1.2-4.4,0
		c-0.3-0.3-0.7-0.3-1,0c-0.3,0.3-0.3,0.7,0,1c0.9,0.9,2,1.3,3.2,1.3c1.2,0,2.3-0.4,3.2-1.3l4.2-4.2c0.8-0.8,1.3-2,1.3-3.2
		C29.5,13.8,29.1,12.6,28.2,11.8z"/>
	<path style="fill:#FFFFFF;" d="M19.9,24.5l-2.7,2.7c-0.6,0.6-1.4,0.9-2.2,0.9c-0.8,0-1.6-0.3-2.2-0.9c-1.2-1.2-1.2-3.2,0-4.4
		l3.9-3.9c0.6-0.6,1.4-0.9,2.2-0.9c0.8,0,1.6,0.3,2.2,0.9c0.3,0.3,0.7,0.3,1,0c0.3-0.3,0.3-0.7,0-1c-1.8-1.8-4.6-1.8-6.4,0l-3.9,3.9
		c-0.8,0.8-1.3,2-1.3,3.2c0,1.2,0.5,2.3,1.3,3.2c0.8,0.8,2,1.3,3.2,1.3c1.2,0,2.3-0.5,3.2-1.3l2.7-2.7c0.3-0.3,0.3-0.7,0-1
		S20.1,24.3,19.9,24.5z"/>
</g>
</svg>
